<svg xmlns="http://www.w3.org/2000/svg" viewBox="0 0 111.56 99.53"><defs><style>.cls-1{fill:#fff;}</style></defs><g id="Layer_2" data-name="Layer 2"><g id="svg12"><path id="path10" class="cls-1" d="M111.56,50.53a12.21,12.21,0,0,0-20.7-8.8c-8.4-6-19.9-9.9-32.7-10.4l5.6-26.2L82,9a8.69,8.69,0,1,0,.9-4.2L62.56.53a2.13,2.13,0,0,0-1.6.3,2,2,0,0,0-.9,1.4l-6.2,29.2c-13,.4-24.7,4.3-33.2,10.4A12.2,12.2,0,1,0,3.74,59.41a12,12,0,0,0,3.42,2.32,22.18,22.18,0,0,0-.3,3.7c0,18.8,21.9,34.1,48.9,34.1s48.9-15.2,48.9-34.1a23,23,0,0,0-.3-3.7,12.32,12.32,0,0,0,7.2-11.2Zm-83.8,8.7a8.7,8.7,0,0,1,17.4,0h0a8.7,8.7,0,1,1-17.4,0Zm48.7,23.1c-6,6-17.4,6.4-20.7,6.4s-14.8-.5-20.7-6.4a2.26,2.26,0,1,1,3.2-3.2c3.8,3.8,11.8,5.1,17.5,5.1s13.8-1.3,17.5-5.1a2.23,2.23,0,0,1,3.2,0A2.43,2.43,0,0,1,76.46,82.33ZM74.86,68a8.7,8.7,0,1,1,0-17.4h0a8.7,8.7,0,0,1,0,17.4Z"/></g></g></svg>